<svg viewBox="0 0 26 22" xmlns="http://www.w3.org/2000/svg">
<path d="m17.513 0.601c2.034-0.036 3.117 0.705 4.151 1.647 0.878-0.075 2.019-0.565 2.691-0.907 0.217-0.118 0.435-0.238 0.653-0.357-0.384 1.037-0.904 1.849-1.704 2.466-0.178 0.136-0.354 0.321-0.577 0.408v0.013c1.14-0.011 2.08-0.526 2.973-0.805v0.013c-0.469 0.745-1.104 1.502-1.781 2.044-0.273 0.217-0.547 0.434-0.82 0.651 0.015 1.207-0.018 2.359-0.243 3.373-1.312 5.895-4.788 9.897-10.289 11.612-1.976 0.615-5.168 0.868-7.432 0.306-1.122-0.278-2.136-0.593-3.087-1.009-0.529-0.231-1.019-0.481-1.487-0.767-0.154-0.093-0.307-0.187-0.461-0.28 0.51 0.015 1.108 0.156 1.678 0.063 0.517-0.083 1.023-0.061 1.5-0.165 1.188-0.261 2.243-0.606 3.151-1.138 0.441-0.258 1.11-0.56 1.423-0.932-0.59 0.01-1.125-0.127-1.563-0.281-1.699-0.6-2.688-1.703-3.332-3.36 0.515 0.057 1.998 0.191 2.345-0.102-0.648-0.036-1.271-0.411-1.717-0.69-1.367-0.855-2.481-2.289-2.473-4.496 0.18 0.085 0.359 0.17 0.538 0.255 0.344 0.145 0.693 0.222 1.102 0.307 0.173 0.036 0.519 0.137 0.718 0.063h-0.026c-0.264-0.307-0.695-0.512-0.961-0.843-0.877-1.089-1.698-2.766-1.179-4.764 0.132-0.507 0.341-0.954 0.564-1.367 9e-3 4e-3 0.017 8e-3 0.026 0.012 0.102 0.214 0.33 0.371 0.474 0.55 0.448 0.555 1 1.054 1.563 1.494 1.918 1.5 3.645 2.422 6.419 3.104 0.704 0.174 1.517 0.306 2.358 0.307-0.236-0.687-0.16-1.8 0.025-2.465 0.468-1.674 1.483-2.879 2.973-3.526 0.356-0.154 0.751-0.267 1.166-0.358 0.214-0.025 0.427-0.051 0.641-0.076z"/>
</svg>
