<svg viewBox="0 0 21 26" xmlns="http://www.w3.org/2000/svg">
<path d="m9.051 16.854c-0.209 0.833-0.42 1.706-0.638 2.56-0.215 0.842-0.405 1.696-0.718 2.47-0.519 1.281-1.178 2.519-2.043 3.521-0.575 0.667-0.453 0.401-0.626 0.365-0.132-0.028-0.143-0.157-0.169-0.345-0.141-1.018-0.045-2.195 7e-3 -3.339 0.06-1.304 0.334-2.388 0.589-3.471 0.484-2.064 0.946-4.087 1.435-6.164 0.032-0.138 0.12-0.366 0.09-0.445-0.222-0.577-0.366-1.095-0.429-1.701-0.073-0.695-0.017-1.344 0.139-1.943 0.277-1.058 0.913-1.995 1.894-2.338 0.624-0.216 1.315-0.118 1.735 0.132 0.432 0.259 0.729 0.667 0.867 1.246 0.148 0.615 0.039 1.351-0.08 1.891-0.267 1.219-0.618 2.134-0.937 3.31-0.158 0.583-0.337 1.182-0.189 1.812 0.136 0.578 0.437 0.976 0.847 1.275 0.426 0.31 0.93 0.479 1.625 0.455 1.228-0.043 2.081-0.828 2.651-1.568 0.913-1.185 1.465-2.784 1.675-4.686 0.067-0.614 0.117-1.319 0.07-2.014-0.088-1.284-0.489-2.317-1.127-3.117-0.606-0.763-1.466-1.369-2.512-1.711-1.037-0.338-2.472-0.451-3.747-0.233-2.318 0.397-3.952 1.714-4.915 3.533-0.504 0.952-0.837 2.047-0.837 3.41 0 1.051 0.259 1.865 0.678 2.5 0.133 0.201 0.328 0.367 0.458 0.597 0.185 0.326-0.028 0.811-0.119 1.164-0.11 0.425-0.122 1.012-0.618 1.022-0.206 4e-3 -0.464-0.146-0.638-0.243-1.305-0.721-2.097-2.033-2.422-3.734-0.198-1.034-0.197-2.239 0-3.238 0.19-0.967 0.544-1.858 0.937-2.581 0.814-1.503 2.007-2.705 3.459-3.563 1.116-0.66 2.375-1.123 3.907-1.346 0.508-0.074 1.034-0.105 1.605-0.132 1.668-0.078 3.184 0.3 4.326 0.81 1.205 0.539 2.167 1.256 2.98 2.146 0.838 0.915 1.448 1.979 1.834 3.309 0.202 0.692 0.398 1.432 0.398 2.287 0 0.858-0.181 1.613-0.308 2.368-0.474 2.828-1.819 5.141-3.838 6.458-0.489 0.318-1.081 0.613-1.754 0.809-0.667 0.194-1.428 0.34-2.243 0.283-0.791-0.054-1.439-0.269-1.983-0.577-0.54-0.305-0.994-0.679-1.316-1.244z"/>
</svg>