<svg viewBox="0 0 26 26" xmlns="http://www.w3.org/2000/svg">
<path d="m22.7 25.8h-19.2c-1.767 0-3.2-1.433-3.2-3.201v-19.199c0-1.768 1.433-3.201 3.2-3.201h19.2c1.767 0 3.2 1.433 3.2 3.201v19.199c0 1.768-1.433 3.201-3.2 3.201zm-9.6-17.761c-1.996 0-3.711 1.182-4.498 2.88h-5e-3c-8e-3 0.018-0.014 0.037-0.022 0.055-0.047 0.105-0.088 0.213-0.128 0.321-0.019 0.053-0.04 0.104-0.057 0.156-0.037 0.112-0.067 0.225-0.095 0.34-0.014 0.053-0.03 0.106-0.042 0.16-0.026 0.121-0.044 0.244-0.061 0.368-7e-3 0.05-0.017 0.099-0.023 0.15-0.018 0.174-0.029 0.351-0.029 0.531 0 2.739 2.221 4.959 4.96 4.959s4.96-2.22 4.96-4.959c0-0.18-0.011-0.357-0.029-0.531-6e-3 -0.051-0.016-0.1-0.023-0.15-0.017-0.124-0.035-0.247-0.061-0.368-0.012-0.054-0.028-0.107-0.042-0.16-0.028-0.115-0.058-0.228-0.095-0.34-0.017-0.052-0.038-0.103-0.057-0.156-0.04-0.108-0.081-0.216-0.128-0.321-8e-3 -0.018-0.014-0.037-0.022-0.055h-5e-3c-0.787-1.698-2.502-2.88-4.498-2.88zm9.92-3.68c0-0.707-0.573-1.279-1.28-1.279h-2.56c-0.707 0-1.28 0.572-1.28 1.279v2.561c0 0.707 0.573 1.28 1.28 1.28h2.56c0.707 0 1.28-0.573 1.28-1.28v-2.561zm0 6.56h-2.36c0.182 0.663 0.28 1.361 0.28 2.081 0 4.33-3.51 7.839-7.84 7.839s-7.84-3.509-7.84-7.839c0-0.72 0.098-1.418 0.28-2.081h-2.36v10.72c0 0.708 0.573 1.281 1.28 1.281h17.28c0.707 0 1.28-0.573 1.28-1.281v-10.72z"/>
</svg>
