<svg viewBox="0 0 18 15" xmlns="http://www.w3.org/2000/svg">
<path d="m17.726 3.663h1e-3l-2.475 5.5c-0.122 0.271-0.386 0.464-0.697 0.485l-7.128 0.475 0.412 1.176h7.761c0.911 0 1.65 0.739 1.65 1.651 0 0.911-0.739 1.65-1.65 1.65s-1.65-0.739-1.65-1.65h-7.7c0 0.911-0.739 1.65-1.65 1.65s-1.65-0.739-1.65-1.65c0-0.912 0.739-1.651 1.65-1.651h1.491l-3.176-9.074h-1.89c-0.456 0-0.825-0.37-0.825-0.825 0-0.456 0.369-0.825 0.825-0.825h2.475c0.36 0 0.663 0.232 0.776 0.553l3e-3 -1e-3 0.48 1.373h12.216c0.456 0 0.825 0.369 0.825 0.825 0 0.12-0.027 0.234-0.074 0.338zm-12.389 0.487 1.525 4.357 7.089-0.473 1.748-3.884h-10.362z"/>
</svg>